<?xml version="1.0" encoding="utf-8"?>
<!-- Generator: Adobe Illustrator 26.0.1, SVG Export Plug-In . SVG Version: 6.00 Build 0)  -->
<svg version="1.1" id="Layer_1" xmlns="http://www.w3.org/2000/svg" xmlns:xlink="http://www.w3.org/1999/xlink" x="0px" y="0px"
	 viewBox="0 0 93.6 98.7" style="enable-background:new 0 0 93.6 98.7;" xml:space="preserve">
<style type="text/css">
	.st0{fill:#F7D5D5;}
</style>
<path class="st0" d="M5.9,33.1c4.6,0.5,9.1,1,13.6,1.5c4.4,0.5,13.4-4.3,20.4-4.7c2.3-2.1,4.8-4.4,7.4-6.1
	c4.8-6.7,7.5-7.1,11.3-14.7c5.5-10.8,32.5,2.2,30,13.2c-1.3,6-3.7,13.6-5.4,18.3c0.8,6.9-1.7,18.1-3.7,22.6
	c-4.3,9.9-7.4,16.7-11.7,26.6c-0.2,0.4-0.4,0.8-0.6,1.1c-1,1.8-3.1,2.9-5.1,2.6c-3.2-0.4-5.3-3.7-4.2-6.8c0.5-1.5,0,0,0.6-1.6
	c0.4-0.9,0-1.7-0.8-2.1c-0.8-0.3-1.6,0-2,0.9c-0.1,0.3-0.2,0.5-0.4,0.8c-1,2.2-0.3,1-1.4,3.2c-1.2,2.5-4,3.7-6.4,2.9
	c-2.3-0.8-3.6-3.4-3-6.1c0.1-0.5,0.3-1,0.5-1.5c1-2.3,0.5-1.2,1.5-3.5c0.5-1.2,0.3-2-0.6-2.4c-0.9-0.4-1.7,0-2.2,1.2
	c-0.2,0.5-0.4,1-0.6,1.4c-1.2,2.6-1.3,3.3-2.5,5.9c-1.3,2.8-4.3,4-6.9,2.8c-2.6-1.2-3.6-4.1-2.4-7c1.5-3.4,1.9-4.7,3.4-8.1
	c0.1-0.2,0.2-0.5,0.3-0.7c0.2-0.8,0-1.5-0.8-1.9c-0.7-0.4-1.5-0.1-2,0.6c-0.2,0.3-0.3,0.6-0.5,1c-5,11.3,0.9-2.1-4.1,9.2
	c-0.2,0.5-0.4,1-0.7,1.5c-1.2,2.1-3.8,3.2-6,2.5c-2.3-0.7-3.7-2.9-3.4-5.4c0.1-0.9,0.4-1.8,0.8-2.6c5.8-13.3,0.8-1.7,6.6-15
	c0.3-0.6,3.8-7.1,4.1-15.8c-1.6-1.6-4.5,0.5-11.1,0.4c-6.7-0.2-12.5-5.8-13.1-8.9C4.6,36.7,5.2,35,5.9,33.1z"/>
</svg>
